<?xml version="1.0" encoding="UTF-8" standalone="no"?>
<!-- Created with Inkscape (http://www.inkscape.org/) -->

<svg
   xmlns:dc="http://purl.org/dc/elements/1.1/"
   xmlns:cc="http://creativecommons.org/ns#"
   xmlns:rdf="http://www.w3.org/1999/02/22-rdf-syntax-ns#"
   xmlns:svg="http://www.w3.org/2000/svg"
   xmlns="http://www.w3.org/2000/svg"
   xmlns:sodipodi="http://sodipodi.sourceforge.net/DTD/sodipodi-0.dtd"
   xmlns:inkscape="http://www.inkscape.org/namespaces/inkscape"
   width="210mm"
   height="297mm"
   viewBox="0 0 210 297"
   version="1.1"
   id="svg151"
   inkscape:version="0.92.2 (5c3e80d, 2017-08-06)"
   sodipodi:docname="shapes.svg">
  <defs
     id="defs145" />
  <sodipodi:namedview
     id="base"
     pagecolor="#ffffff"
     bordercolor="#666666"
     borderopacity="1.0"
     inkscape:pageopacity="0.0"
     inkscape:pageshadow="2"
     inkscape:zoom="0.7"
     inkscape:cx="579.84533"
     inkscape:cy="590.40486"
     inkscape:document-units="mm"
     inkscape:current-layer="layer1"
     showgrid="false"
     inkscape:window-width="1262"
     inkscape:window-height="1343"
     inkscape:window-x="0"
     inkscape:window-y="0"
     inkscape:window-maximized="0" />
  <metadata
     id="metadata148">
    <rdf:RDF>
      <cc:Work
         rdf:about="">
        <dc:format>image/svg+xml</dc:format>
        <dc:type
           rdf:resource="http://purl.org/dc/dcmitype/StillImage" />
        <dc:title></dc:title>
      </cc:Work>
    </rdf:RDF>
  </metadata>
  <g
     inkscape:label="Layer 1"
     inkscape:groupmode="layer"
     id="layer1">
    <g
       id="g6027"
       transform="matrix(0.04378294,0,0,0.0489562,14.236824,6.4085913)">
      <path
         inkscape:connector-curvature="0"
         d="M 214.418,263.604 V 726.908 H 345.627 V 574.348 H 454.594 V 726.91 H 585.805 V 263.604 L 400.111,139.322 Z m 120.311,288.95 h -65.38 v -65.382 h 65.38 z m 0,-98.072 h -65.38 v -65.376 h 65.38 z m 0,-98.068 h -65.38 v -65.382 h 65.38 z M 465.49,291.032 h 65.383 v 65.382 H 465.49 Z m 0,98.073 h 65.383 v 65.376 H 465.49 Z m 0,98.067 h 65.383 v 65.382 H 465.49 Z m -32.685,65.382 h -65.384 v -65.382 h 65.384 z m 0,-98.072 h -65.384 v -65.376 h 65.384 z m 0,-98.068 h -65.384 v -65.382 h 65.384 z"
         id="path6015" />
      <polygon
         points="202.262,245.506 394.047,117.16 406.176,117.16 597.959,245.506 658.913,245.506 400.111,73.09 141.31,245.506 "
         id="polygon6017" />
      <path
         inkscape:connector-curvature="0"
         d="M 783.654,452.672 H 616.572 V 726.908 H 783.654 Z M 732.805,649.501 H 667.43 V 584.12 h 65.375 z m 0,-96.947 H 667.43 v -65.382 h 65.375 z"
         id="path6019" />
      <rect
         x="616.57202"
         y="411.32501"
         width="183.42799"
         height="19.555"
         id="rect6021" />
      <path
         inkscape:connector-curvature="0"
         d="M 183.43,452.672 H 16.344 V 726.908 H 183.43 Z M 132.572,649.501 H 67.191 V 584.12 h 65.381 z m 0,-96.947 H 67.191 v -65.382 h 65.381 z"
         id="path6023" />
      <rect
         x="0"
         y="411.32501"
         width="183.42999"
         height="19.555"
         id="rect6025" />
    </g>
    <path
       style="fill:#000000;stroke-width:0.12119532"
       d="m 78.704781,42.9987 c -0.17283,-0.0902 -0.20936,-0.26439 -0.18602,-0.886999 0.016,-0.426141 0.0766,-0.84359 0.1347,-0.927672 0.19533,-0.28266 0.2006,-1.208159 0.0121,-2.13342 -0.10286,-0.505148 -0.25176,-1.475459 -0.33084,-2.15623 -0.12139,-1.045138 -0.19176,-1.28411 -0.45215,-1.535379 -0.20828,-0.20099 -0.30783,-0.43169 -0.30667,-0.71066 0.003,-0.82927 -0.30786,-3.67958 -0.40189,-3.67958 -0.15555,0 -0.27567,0.98022 -0.1856,1.51467 0.0455,0.27009 0.1155,0.95019 0.15551,1.5113 0.0616,0.86379 0.0411,1.0361 -0.13381,1.12363 -0.16298,0.0816 -0.17733,0.15218 -0.068,0.33481 0.17174,0.28698 0.18754,0.975249 0.0556,2.422081 -0.0892,0.97805 -0.0744,1.145759 0.11817,1.336018 0.1211,0.11969 0.30429,0.505701 0.40712,0.857832 0.20914,0.71628 0.10653,1.03948 -0.48121,1.51583 -0.52315,0.423968 -0.84828,0.51915 -1.49083,0.436369 -1.45792,-0.18778 -1.81503,-0.595169 -0.95628,-1.090861 0.43637,-0.25187 0.48423,-0.330089 0.52031,-0.850159 0.0219,-0.315 0.0939,-0.621739 0.16019,-0.68162 0.20889,-0.188819 0.13463,-0.51286 -0.37815,-1.650399 -0.27423,-0.60834 -0.577,-1.410091 -0.67281,-1.781662 -0.16151,-0.626358 -0.21153,-0.689789 -0.68681,-0.870609 l -0.51262,-0.19503 -0.0424,-1.88014 c -0.0233,-1.03407 -0.0474,-2.08645 -0.0535,-2.33859 -0.0306,-1.26285 0.17354,-4.46963 0.33931,-5.32955 0.20928,-1.0856 0.2595,-2.01177 0.22374,-4.12613 l -0.0243,-1.43268 -0.25239,0.28654 c -0.13882,0.15759 -0.65551,0.98412 -1.14823,1.83671 -0.4927,0.8526 -1.14687,1.85873 -1.4537,2.23584 -0.7792,0.9577 -0.88798,1.16198 -0.74578,1.40029 0.0658,0.11036 0.16121,0.49849 0.21194,0.86262 0.0556,0.39921 0.17523,0.7179 0.30131,0.80278 0.31052,0.20904 0.76283,0.82039 0.85808,1.15979 0.14663,0.5225 -0.028,0.83035 -0.58375,1.02924 -0.28258,0.10115 -0.51379,0.23324 -0.51379,0.29357 0,0.18987 0.51583,2.54163 0.78801,3.59267 0.2198,0.8488 0.23376,1.03621 0.0888,1.19248 -0.12378,0.13345 -0.17877,0.65417 -0.19621,1.858281 -0.032,2.210628 -0.15077,3.45376 -0.35746,3.742679 -0.0928,0.129789 -0.13903,0.37533 -0.10266,0.545629 0.039,0.182412 -0.0454,0.541581 -0.20532,0.874112 -0.14933,0.310449 -0.27151,0.72153 -0.27151,0.913519 0,0.2833 -0.0649,0.36363 -0.34469,0.426421 -0.18956,0.0425 -0.56575,0.02461 -0.83594,-0.0399 -0.27234,-0.0651 -0.52189,-0.0729 -0.55997,-0.01788 -0.11402,0.164988 -1.00219,0.11172 -1.3056,-0.0784 -0.38418,-0.240676 -0.59077,-0.603928 -0.4408,-0.775098 0.18926,-0.216053 0.0316,-2.167802 -0.2229,-2.760212 -0.0785,-0.182571 -0.16491,-0.90464 -0.19215,-1.6046 -0.10581,-2.719861 -0.27879,-3.708271 -0.5417,-3.095521 -0.0431,0.10055 -0.24349,0.34447 -0.44518,0.54195 -0.20169,0.19749 -0.3962,0.442201 -0.43225,0.543769 -0.0361,0.10165 -0.20969,0.253691 -0.38587,0.338 -0.27442,0.13136 -0.38465,0.125891 -0.76944,-0.0382 -0.39451,-0.168262 -0.43937,-0.22996 -0.36889,-0.507471 0.0442,-0.17375 0.20393,-0.40396 0.35507,-0.51157 0.15116,-0.10766 0.43342,-0.30494 0.62725,-0.43852 0.19384,-0.13358 0.35278,-0.30341 0.35322,-0.37742 3.5e-4,-0.074 0.0748,-0.26349 0.16515,-0.42108 0.55512,-0.96771 0.7668,-1.92726 0.58488,-2.65136 -0.18901,-0.75237 -0.0227,-1.53981 0.42055,-1.99132 l 0.37539,-0.38237 -0.29281,-0.0794 c -0.36651,-0.0994 -0.86949,-0.50347 -0.86949,-0.69838 0,-0.13386 -0.45755,-0.82453 -0.76193,-1.1501 -0.57693,-0.61713 0.0747,-1.72277 1.36637,-2.31834 0.50242,-0.23166 1.50688,-0.18722 1.80555,0.0799 0.72111,0.64492 1.02054,1.59712 0.73517,2.33789 -0.21511,0.5584 -0.1139,0.72797 0.3697,0.61941 0.32297,-0.0724 0.32977,-0.0948 0.32977,-1.08141 0,-0.82936 0.0667,-1.17085 0.37737,-1.93219 0.20756,-0.50864 0.47338,-1.35662 0.59074,-1.88443 0.12998,-0.58465 0.40096,-1.28317 0.69346,-1.78756 0.45927,-0.79199 0.46968,-0.8343 0.23948,-0.97424 -0.22896,-0.13918 -0.20308,-0.22142 0.53303,-1.69358 1.39839,-2.79667 1.51153,-2.96726 2.24699,-3.388035 0.36521,-0.20893 1.06168,-0.55022 1.54774,-0.75844 0.48606,-0.20821 0.90391,-0.38851 0.92856,-0.40065 0.091,-0.0448 -0.26096,-0.83974 -0.37185,-0.83974 -0.27104,0 -0.5059,-0.7052 -0.50385,-1.51295 0.003,-1.3550598 0.66307,-2.1353898 1.89466,-2.2412298 0.88083,-0.0757 1.74851,0.3719 2.10049,1.08355 0.13573,0.2744298 0.23278,0.5878798 0.21566,0.6965398 -0.0171,0.10865 0.0129,0.36501 0.0667,0.56967 0.11728,0.44625 -0.11895,1.17519 -0.38085,1.17519 -0.12604,0 -0.1823,0.13611 -0.1823,0.44105 0,0.50602 0.0774,0.5475 2.09356,1.12326 1.4936,0.4265 1.64713,0.61521 2.45489,3.017215 0.57337,1.70502 0.60277,1.85139 0.41003,2.04186 -0.19316,0.19089 -0.1681,0.28078 0.35955,1.28951 0.47613,0.91026 0.65087,1.45956 1.08858,3.42176 0.28676,1.28559 0.55792,2.3903 0.60257,2.45491 0.13207,0.19112 0.15626,1.48793 0.0316,1.69618 -0.16803,0.2808 0.30045,0.75571 0.90537,0.9178 0.38858,0.10411 0.62853,0.10153 1.08081,-0.0123 0.54276,-0.135911 0.57508,-0.16552 0.48711,-0.446271 -0.0518,-0.1654 -0.0944,-0.635959 -0.0945,-1.0457 -2.9e-4,-0.596789 0.0591,-0.819429 0.29816,-1.11922 0.30501,-0.382429 0.82926,-0.686309 1.29336,-0.74964 0.14291,-0.0195 0.29871,-0.0702 0.34621,-0.112699 0.0475,-0.0425 0.36758,0.0597 0.71125,0.226899 0.78215,0.38072 0.90472,0.727751 0.72175,2.04349 -0.0778,0.559401 -0.31106,0.915451 -0.70491,1.075951 -0.40185,0.16375 -0.37202,0.42662 0.0571,0.50376 0.19384,0.0349 0.55003,0.183099 0.79153,0.32951 0.38785,0.2351 0.48859,0.41129 0.86298,1.50925 0.49979,1.46563 0.47186,1.56938 -0.53341,1.98098 l -0.68312,0.279699 -0.0484,0.769651 c -0.0318,0.50658 0.013,0.88359 0.13124,1.10303 0.14056,0.2608 0.16465,0.72253 0.1107,2.120561 -0.0379,0.982949 -0.13187,1.93516 -0.20876,2.116019 -0.0769,0.18084 -0.19318,0.666001 -0.25844,1.078111 -0.0652,0.412099 -0.18209,0.78436 -0.25966,0.82723 -0.096,0.0532 -0.0778,0.124839 0.0572,0.225118 0.476,0.353301 -0.002,0.921422 -0.77568,0.921422 -0.53066,0 -0.70147,-0.20293 -0.60737,-0.72155 0.0581,-0.31986 0.0283,-0.43701 -0.1242,-0.489342 -0.17341,-0.0595 -0.19509,-0.336899 -0.16045,-2.052688 0.022,-1.09112 -0.006,-2.051222 -0.0634,-2.13356 -0.1961,-0.28376 -0.28599,0.46704 -0.19593,1.63644 0.0803,1.0423 0.0677,1.14772 -0.14283,1.197179 -0.1859,0.0437 -0.23655,0.189611 -0.26016,0.749781 -0.0345,0.81887 -0.17533,1.011439 -0.73961,1.011439 -0.58286,0 -0.68467,-0.171389 -0.57868,-0.974209 0.0581,-0.439582 0.0426,-0.71583 -0.0428,-0.765662 -0.20112,-0.117348 -0.39591,-1.721768 -0.36764,-3.028169 0.0199,-0.918769 0.0915,-1.31549 0.34689,-1.9224 0.17702,-0.42061 0.32185,-0.78934 0.32185,-0.81942 0,-0.0301 -0.13314,-0.0546 -0.29589,-0.0546 -0.51943,0 -0.7494,-0.237291 -0.61096,-0.63037 0.19803,-0.56233 0.5258,-2.040191 0.52403,-2.3628 -0.002,-0.36284 -0.41566,-0.860691 -0.80595,-0.96995 -0.64067,-0.17936 -1.36756,-0.746681 -1.62591,-1.26901 -0.14356,-0.29025 -0.26102,-0.62128 -0.26102,-0.73563 0,-0.11429 -0.06,-0.24105 -0.13336,-0.2816 -0.0733,-0.0405 -0.0983,-0.17253 -0.0555,-0.29331 0.0629,-0.177441 0.0147,-0.21957 -0.25109,-0.21957 -0.39509,0 -0.40462,-0.0675 -0.0727,-0.51577 0.14004,-0.189101 0.25501,-0.460581 0.25547,-0.603271 3.4e-4,-0.142699 0.0729,-0.363339 0.16104,-0.490339 0.17855,-0.25737 0.16259,-0.28888 -1.03161,-2.03626 -0.35793,-0.52372 -0.74462,-1.219991 -0.85933,-1.54729 -0.52872,-1.508561 -1.00052,-2.592251 -1.10373,-2.535191 -0.18273,0.101031 -0.12894,3.62395 0.0847,5.55045 0.10837,0.977091 0.21883,2.794501 0.24545,4.038711 0.0265,1.244189 0.11903,3.14257 0.20535,4.2186 0.0921,1.1471 0.10962,1.99743 0.0425,2.05554 -0.063,0.0545 -0.31628,0.14727 -0.56298,0.20614 -0.2467,0.0589 -0.43745,0.157141 -0.4239,0.218371 0.0136,0.0613 0.0643,0.62571 0.11268,1.254408 0.079,1.02567 0.0517,1.270402 -0.26554,2.382152 -0.19619,0.687499 -0.3027,1.27163 -0.23929,1.312288 0.0628,0.0403 0.35869,0.215742 0.6574,0.38988 0.46547,0.271362 0.54312,0.373192 0.54312,0.712322 0,0.293708 -0.0743,0.43063 -0.28836,0.53136 -0.15859,0.0746 -0.45136,0.256929 -0.65059,0.40518 -0.27955,0.20796 -0.51364,0.2687 -1.02524,0.26602 -0.36463,-0.0011 -0.75976,-0.054 -0.87805,-0.115771 z"
       id="path7071-87"
       inkscape:connector-curvature="0" />
    <path
       id="path7237"
       d="m 130.62915,19.575547 c -0.45959,-0.1533 0.15365,-0.66416 0.15365,-0.66416 0.51082,-0.15332 0.35749,-1.32899 0.35749,-1.32899 0.61293,-2.29875 -1.83979,-2.24752 -1.83979,-2.24752 -1.63459,0.10176 -1.27707,2.04332 -1.27707,2.04332 0,0 0.30662,0.25539 -0.2042,0.10248 -0.51082,-0.15332 0.15332,1.32826 0.15332,1.32826 l 0.15295,0.45998 c -0.25575,0.45999 -0.97077,0.3575 -0.97077,0.3575 -1.48197,-0.10212 -1.48197,4.18977 -1.48197,4.18977 l -0.2554,0.10247 c 0,-0.3575 -0.6638,-2.34995 -0.76629,-3.16743 -0.10236,-0.81782 -0.91989,-2.75974 -1.17528,-3.57721 -0.25543,-0.81748 -0.4084,-2.40118 -0.4084,-2.40118 0,0 0,0 0.25543,0.0512 0.25539,0.0505 0.66376,-0.35784 0.66376,-0.35784 -1.58369,-0.40908 -0.56135,-0.35788 -1.17528,-1.17533 -0.61258,-0.81779 -0.40841,-1.02198 -0.35718,-1.68614 0.0509,-0.6638 0.0509,-2.7081703 0.0509,-2.7081703 -0.10212,-1.27742 -1.27708,-1.17532 -2.34994,-1.12375 -1.07323,0.0509 -1.63532,2.04333 -2.09491,2.8614703 -0.46031,0.81709 -1.48197,1.68618 -1.48197,1.68618 -0.56203,-0.20456 -1.32862,0.40872 -1.32862,0.40872 -1.37918,1.17462 -0.81709,12.41597 -0.81709,12.41597 0,0 -0.30662,0.76589 -0.46033,0.71501 -0.15295,-0.0509 -0.86797,0.35789 -1.07288,0.10248 -0.20416,-0.25575 -0.81747,-0.20418 -0.91919,-0.45992 -0.10248,-0.25543 -1.27777,-1.58407 -1.27777,-1.58407 -0.4596,-0.81747 -1.58369,-0.76626 -1.58369,-0.76626 0,-0.20455 -0.15371,-0.61362 -0.15371,-0.61362 0.66418,-0.81747 0.4091,-2.24822 0.4091,-2.24822 -0.25539,-1.27739 -1.6865,-1.3276 -1.6865,-1.3276 -2.45239,0.56136 -1.37916,3.67825 -1.37916,3.67825 -0.45998,-0.0509 -0.20452,0.30662 -0.35789,0.4091 -0.15329,0.10212 -0.20451,0.20417 -0.91989,0.4596 -0.71537,0.25574 -0.71537,1.12374 -0.97079,1.68614 -0.25541,0.56242 -0.56203,3.0148 -0.76661,3.83227 -0.20417,0.81747 -0.25505,3.57648 -0.25505,3.57648 -0.56242,0.97046 1.22586,0.66382 1.22586,0.66382 0.2049,-0.15299 0.0512,-1.07257 0.0512,-1.07257 -0.25542,-1.63526 0.61327,-4.65006 0.61327,-4.65006 0,0 0.15297,0.92025 -0.0509,1.37987 -0.20455,0.4596 0.10212,1.53282 0.10212,1.53282 -0.51083,0.45998 1.07286,3.985571 1.02164,4.189771 -0.0509,0.204179 0.0512,0.91989 0,1.48159 -0.0509,0.561689 0.15333,1.481979 0.0512,2.708167 -0.10211,1.22619 0.40873,1.94121 0.40873,1.94121 0,0 0.0954,0 0.15364,0 -0.15364,0 -0.86901,0.76695 -0.86901,0.76695 -0.81748,0.71537 1.22651,0.66451 1.22651,0.66451 0.81747,0 0.7666,-1.12483 0.7666,-1.12483 l 0.25507,-0.10176 c -0.10212,0.97045 1.2262,0.61257 1.2262,0.61257 0.71572,-0.30595 -0.10176,-2.45203 -0.15297,-2.6562 -0.0512,-0.20455 0.25508,-1.073247 0.25508,-1.073247 l 0.0515,-0.562012 0.10176,-0.409098 c 0,0 0.2042,-0.562031 0.2042,-1.12376 0,-0.562401 -0.0509,-2.708171 0.15365,-3.167761 0.2042,-0.4603 0.0512,-2.24854 0.0512,-2.24854 0.20416,-0.3575 0.15297,-3.26952 0.15297,-3.26952 -0.10176,-1.07323 0.40907,-0.5108 0.40907,-0.5108 0.2042,0.715 1.89038,1.43071 1.89038,1.43071 0.51079,0.20418 3.06566,-1.02234 3.06566,-1.02234 0.3575,0.30663 1.022,-0.45997 1.022,-0.45997 0.40873,0.0516 -0.20452,-2.14575 -0.40872,-2.75906 -0.20451,-0.61288 0.15298,-1.78823 0,-3.11689 -0.15333,-1.32794 0.2042,-3.52557 0.2042,-3.52557 0.20452,0.30661 0.30663,2.91269 0.30663,2.91269 v 3.32106 l 0.15328,0.35787 c -0.51117,0.45961 0.45961,5.62048 0.45961,6.23344 0,0.61295 0.30661,2.45239 0.25573,3.16777 -0.0509,0.71537 0.61332,2.50359 0.61332,3.01445 0,0.51085 -0.20455,2.350658 -0.30663,2.861138 -0.10248,0.51117 -0.56242,0.97111 -0.56242,0.97111 -0.51084,0.15334 -0.30627,1.17497 -0.30627,1.17497 l 1.83946,0.15365 c 0.47051,-0.1284 0.40382,-0.89958 0.37015,-1.14793 0.10908,0.27083 0.95816,0.48342 0.95816,0.48342 1.07321,-0.15294 0.92024,-1.17496 0.66449,-1.58403 -0.25575,-0.4084 -0.66449,-2.810267 -0.56208,-3.168108 0.10212,-0.3575 0.2042,-0.715 0.30631,-1.27743 0.10235,-0.56166 0.15363,-2.45236 0.10235,-3.06531 -0.0512,-0.6129 0.76623,-1.83948 1.07289,-2.65695 0.30665,-0.81748 1.68617,-3.88276 1.68617,-3.88276 -0.25539,0.61289 0.4596,0.40838 0.4596,0.40838 0.25539,-0.20422 0.51152,0.56239 0.51152,0.56239 0,0.25543 0.56207,0.0509 0.56207,0.0509 h 0.45961 c 0.30661,0.0516 1.07286,-0.25504 1.07286,-0.25504 0,0 0.66451,-0.76659 -0.0505,0.35715 -0.71572,1.12409 0.40837,1.07357 -0.20486,1.2778 -0.61258,0.20418 0.10248,1.99207 -0.0512,2.14575 -0.15297,0.15296 0.20421,1.73666 0.15365,2.09454 -0.0512,0.35785 0,2.14575 -0.20491,2.657289 -0.20417,0.510482 0.46033,1.123752 0.35788,2.094881 -0.10247,0.970801 0.71573,1.941218 0.40911,2.094888 -0.30663,0.1533 0.10175,0.66415 0,1.12375 -0.10248,0.45998 -0.15368,1.32864 -0.15368,1.32864 -1.43072,0.81744 1.22654,1.37948 1.48197,1.32862 0.25543,-0.0509 0.61293,-0.61292 0.61293,-0.61292 -0.45998,1.17464 1.63491,1.07254 1.63491,1.07254 0.76661,-0.15333 0.40871,-2.04367 0.40871,-2.04367 0.25577,-0.30661 0.30663,-0.45959 0.46031,-1.22619 0.15298,-0.76691 0.0505,-1.37987 0.25508,-1.839467 0.2045,-0.459981 0.0512,-1.328301 0,-2.145732 -0.0509,-0.817829 -0.0509,-1.124458 0.10248,-1.584439 0.15332,-0.45998 0.40873,-2.86146 0.40873,-2.86146 0.86835,-0.71503 0.9708,-5.62017 0.9708,-5.62017 0,0 -0.20454,-3.83153 -0.715,-4.75183 -0.51108,-0.91945 -1.58433,-1.07278 -1.58433,-1.07278 z"
       inkscape:connector-curvature="0"
       style="fill:#000000;fill-opacity:1;stroke-width:0.03179724" />
    <path
       style="fill:#000000;fill-opacity:1;fill-rule:nonzero;stroke:none;stroke-width:0.35277775"
       d="m 17.263566,84.935151 c -0.68764,-0.19016 -1.15204,-0.58704 -1.46486,-1.25263 -0.23289,-0.49334 -0.24529,-1.28295 -0.0275,-1.75562 0.34451,-0.75241 1.05145,-1.25264 1.87,-1.32292 l 0.47405,-0.0413 3.70141,-3.75653 3.70003,-3.75653 0.001,-2.60036 0.003,-2.59898 h -0.9412 c -1.0666,0 -1.33669,-0.0703 -1.50343,-0.39412 -0.0579,-0.11162 -0.10474,-0.33073 -0.10474,-0.48645 0,-0.24666 0.0372,-0.31832 0.28939,-0.55672 0.15848,-0.15021 1.87827,-1.52687 3.8213,-3.05787 l 3.53054,-2.78364 0.003,-2.06292 c 0.003,-1.97197 0.01,-2.06981 0.1378,-2.19797 0.12819,-0.12678 0.22327,-0.13367 1.91688,-0.13367 1.09968,0 1.83141,0.0262 1.91134,0.0689 0.22049,0.11851 0.15021,0.3762 -0.27285,1.00459 -0.22049,0.32935 -0.40239,0.61461 -0.40239,0.6339 0,0.0193 0.1819,0.31832 0.40239,0.66283 0.42857,0.66835 0.4644,0.77997 0.29766,0.94534 -0.0896,0.0909 -0.34038,0.10611 -1.71153,0.10611 h -1.60403 v 0.71107 l 3.82129,3.11023 c 4.08589,3.3252 4.02939,3.27008 3.93293,3.78547 -0.0234,0.11989 -0.13367,0.3073 -0.24667,0.41479 l -0.20395,0.19568 -2.13872,0.0441 v 5.12217 l 4.5558,3.13779 c 2.50527,1.7253 4.5737,3.1874 4.59713,3.24666 0.0234,0.0593 -0.007,0.18328 -0.0675,0.27423 -0.0868,0.13367 -0.14607,0.15847 -0.30316,0.12678 l -0.19431,-0.04 v 3.93154 l 0.16674,0.15847 c 0.26321,0.24667 0.19293,0.60359 -0.1185,0.60359 -0.0689,0 -2.03261,-1.31465 -4.36425,-2.92006 l -4.23747,-2.92007 -0.0344,2.7423 c -0.0262,2.18694 -0.0524,2.76434 -0.1254,2.85254 -0.14332,0.17225 -1.61782,0.16261 -1.77492,-0.011 -0.0978,-0.10887 -0.11299,-0.43271 -0.12815,-2.90215 l -0.0179,-2.7795 -3.43821,-0.0165 -3.4382,-0.0179 v 2.77674 c 0,2.54662 -0.01,2.79053 -0.11714,2.92145 -0.11024,0.13642 -0.16674,0.14331 -0.98943,0.1254 l -0.8723,-0.0193 -0.0179,-1.96233 c -0.01,-1.079 -0.0386,-1.96232 -0.0648,-1.96232 -0.0262,0 -1.01424,0.96462 -2.1966,2.14285 -2.69269,2.68441 -2.40192,2.51491 -4.32842,2.53421 -0.93982,0.01 -1.47312,-0.0124 -1.68258,-0.0703 z m 3.15846,-0.75378 c 0.30593,-0.14194 0.77308,-0.57464 2.73403,-2.53008 l 2.36471,-2.36058 v -2.58933 c 0,-1.42489 -0.0179,-2.60725 -0.0386,-2.62792 -0.0207,-0.0207 -1.63573,1.57096 -3.58979,3.53467 l -3.55258,3.57325 -0.46303,0.0386 c -0.55672,0.0469 -0.91501,0.21635 -1.22782,0.58153 -0.6656,0.77722 -0.4272,1.91685 0.49609,2.37712 0.34175,0.17088 0.38585,0.17501 1.62884,0.17501 1.22783,-10e-4 1.29398,-0.007 1.64813,-0.17226 z m 6.43957,-9.11986 v -8.621 h -0.73725 v 17.24201 h 0.73725 z m 8.9228,0 v -8.621 h -0.73725 v 17.24201 h 0.73725 z m 8.58793,6.14881 v -2.00229 l -0.48644,-0.32935 c -0.26734,-0.18052 -0.5085,-0.33762 -0.53744,-0.35002 -0.0275,-0.0124 -0.0496,0.87781 -0.0496,1.97886 v 2.00229 l 0.51677,0.3514 c 0.28525,0.1943 0.52641,0.3514 0.53743,0.3514 0.011,0 0.0193,-0.90124 0.0193,-2.00229 z m -1.67706,-1.17547 v -1.97059 l -0.49748,-0.34451 c -0.27423,-0.18879 -0.53054,-0.34313 -0.57051,-0.34313 -0.051,0 -0.073,0.59531 -0.073,1.96646 v 1.96784 l 0.48645,0.34037 c 0.26734,0.18741 0.52365,0.34313 0.57051,0.34727 0.0648,0.005 0.0841,-0.42857 0.0841,-1.96371 z m -1.7446,-1.16995 v -2.00091 l -0.49747,-0.34727 c -0.27424,-0.19155 -0.51539,-0.34726 -0.53744,-0.34726 -0.0207,0 -0.0372,0.8971 -0.0358,1.9954 l 0.003,1.9954 0.51676,0.35277 c 0.28388,0.19293 0.52504,0.35278 0.53468,0.35278 0.01,0 0.0165,-0.90124 0.0165,-2.00091 z m -1.7446,-1.20992 v -2.00367 l -0.48645,-0.32797 c -0.26734,-0.18052 -0.50849,-0.339 -0.53606,-0.3514 -0.0276,-0.011 -0.0496,0.87919 -0.0496,1.98024 l 0.003,2.00091 0.51401,0.35278 c 0.28388,0.19293 0.52503,0.3514 0.53606,0.3514 0.011,0 0.0193,-0.90124 0.0193,-2.00229 z m -1.69223,-1.18925 -0.0179,-1.98437 -0.5209,-0.36656 -0.51952,-0.36518 v 4.02663 l 0.48094,0.33624 c 0.2632,0.18603 0.50574,0.33762 0.53743,0.33762 0.0317,0 0.0496,-0.89297 0.04,-1.98438 z m -3.07027,-0.86678 v -2.24758 h -6.91086 v 4.49516 h 6.91086 z m -4.06108,1.75837 c -0.69591,-0.33348 -1.0666,-0.9095 -1.0666,-1.65777 0,-1.01011 0.6904,-1.73633 1.71015,-1.79834 0.56637,-0.0345 1.02112,0.14882 1.40835,0.56912 0.3638,0.39412 0.48369,0.70005 0.48369,1.22922 0,0.51951 -0.11713,0.82544 -0.46026,1.2044 -0.35554,0.39412 -0.70418,0.55535 -1.26917,0.58704 -0.39137,0.0221 -0.52366,0 -0.80616,-0.13367 z m 1.31052,-0.6463 c 1.05006,-0.52503 0.61736,-2.18556 -0.56776,-2.17867 -0.64492,0.003 -1.1107,0.42857 -1.16306,1.06246 -0.0799,0.96601 0.8406,1.55994 1.73082,1.11621 z m 2.74918,-6.59667 v -2.5659 l -0.25355,-0.3197 c -0.6904,-0.87092 -2.01194,-1.46073 -3.2632,-1.45797 -1.08452,0.004 -2.18281,0.46164 -2.949,1.23197 l -0.4768,0.47817 0.0179,2.60036 0.0179,2.59898 h 6.9081 z m -8.9352,-3.53604 c 0.01,-0.31144 0.0524,-0.60634 0.0909,-0.65319 0.0524,-0.0634 0.29766,-0.0882 0.86541,-0.0882 0.77584,0 0.79513,0.004 0.93018,0.17777 0.0772,0.0965 0.13918,0.26321 0.13918,0.36794 v 0.19155 l 0.4203,-0.339 c 0.50161,-0.40652 1.32981,-0.82545 1.92788,-0.97703 0.56637,-0.14332 1.58061,-0.14332 2.14698,0 0.59807,0.15158 1.42627,0.57051 1.92926,0.97703 0.23013,0.18741 0.43407,0.34037 0.45337,0.34037 0.0179,0 0.0331,-0.13504 0.0331,-0.30041 0,-0.22738 0.0303,-0.31557 0.12953,-0.36794 0.0717,-0.0386 0.49334,-0.0703 0.93707,-0.0703 0.95911,0 0.94534,-0.011 0.94534,0.80065 v 0.54156 h 0.97291 c 0.90537,0 0.97289,-0.01 0.97289,-0.1254 0,-0.0841 -1.16582,-1.07349 -3.57187,-3.0303 -1.96509,-1.59715 -3.60909,-2.93247 -3.65319,-2.96554 -0.0551,-0.0427 -1.22232,0.84336 -3.76204,2.85667 -2.02434,1.60542 -3.71933,2.96554 -3.76618,3.02204 -0.17225,0.20809 -0.0165,0.24667 0.92191,0.22738 l 0.91639,-0.0179 z m 5.1456,-1.87413 c -0.64493,-0.29766 -0.89021,-0.99081 -0.57189,-1.61506 0.19293,-0.37621 0.48645,-0.56086 0.95085,-0.59394 0.32659,-0.0234 0.43408,-0.001 0.68488,0.14607 0.52228,0.30593 0.71107,0.92467 0.45338,1.48553 -0.14607,0.31833 -0.29628,0.46164 -0.62839,0.60082 -0.32246,0.13505 -0.55948,0.12816 -0.88883,-0.0234 z m 0.81717,-0.6904 c 0.226,-0.21084 0.21498,-0.6022 -0.0207,-0.78824 -0.0978,-0.0758 -0.24391,-0.13918 -0.32659,-0.13918 -0.20119,0 -0.47818,0.22738 -0.53055,0.43546 -0.0455,0.1819 0.0992,0.53468 0.24392,0.59394 0.20394,0.0813 0.48782,0.0358 0.63389,-0.10198 z m 2.26137,-5.1704 c -0.0276,-0.0455 -0.16537,-0.25631 -0.30593,-0.46578 -0.14194,-0.21083 -0.25631,-0.42443 -0.25631,-0.4768 0,-0.051 0.11437,-0.27147 0.25493,-0.4892 0.14056,-0.21773 0.27699,-0.43408 0.30593,-0.48094 0.04,-0.0648 -0.21636,-0.0827 -1.19476,-0.0827 h -1.24437 v 2.07946 h 1.24437 c 0.97703,0 1.23472,-0.0179 1.19614,-0.0841 z m 0,0"
       id="path4166"
       inkscape:connector-curvature="0" />
    <path
       style="fill:#000000;stroke-width:0.13519187"
       d="m 82.339676,87.330946 c -0.13397,-0.17555 -0.17788,-0.45824 -0.13076,-0.84187 0.0468,-0.38141 0.0168,-0.57757 -0.0885,-0.57757 -0.1023,0 -0.16125,-0.31337 -0.16442,-0.87423 -0.003,-0.48085 -0.0957,-1.2531 -0.20672,-1.71613 -0.11422,-0.47661 -0.20391,-1.55829 -0.20672,-2.49322 -0.005,-1.62483 -0.0101,-1.65135 -0.32246,-1.6513 l -0.31751,6e-5 0.0474,-2.299 c 0.0386,-1.87147 0.0136,-2.26889 -0.13406,-2.1371 -0.22241,0.19847 -0.64869,0.20662 -1.22146,0.0233 -0.4769,-0.15258 -0.80505,-0.73124 -0.96693,-1.70508 -0.0505,-0.30385 -0.15349,-0.62424 -0.22883,-0.71198 -0.0942,-0.10971 0.0214,-0.45097 0.37027,-1.09283 l 0.50725,-0.93331 -0.32898,-0.65566 c -0.18094,-0.36061 -0.49375,-0.87709 -0.69514,-1.14772 -0.20138,-0.27063 -0.43849,-0.70776 -0.52691,-0.97139 -0.18526,-0.55237 -0.97178,-2.09829 -1.06755,-2.09829 -0.0354,0 -0.0298,0.13114 0.0125,0.29141 0.12674,0.47995 0.5105,4.13518 0.49523,4.71696 -0.008,0.29699 0.11549,1.0061 0.27397,1.57579 0.15848,0.56969 0.28814,1.31903 0.28814,1.6652 0,0.34618 0.0674,1.12243 0.14968,1.725 0.12209,0.89364 0.10792,1.30414 -0.0769,2.22702 -0.22335,1.11545 -0.8042,2.59671 -1.35305,3.4505 -0.21665,0.33701 -0.29076,0.72257 -0.324,1.68546 -0.0415,1.20178 -0.0255,1.27894 0.42779,2.06243 0.54701,0.94554 0.59527,1.3824 0.17551,1.5886 -0.37435,0.18387 -0.92091,0.0602 -1.48992,-0.33719 -0.31914,-0.22287 -0.49685,-0.49733 -0.62942,-0.97207 -0.14059,-0.50347 -0.27935,-0.70641 -0.58083,-0.8495 l -0.39611,-0.18801 0.088,0.50531 c 0.0549,0.31486 0.0194,0.62163 -0.0942,0.81398 -0.10026,0.16975 -0.21897,0.51265 -0.26382,0.76197 -0.0806,0.44794 -0.0907,0.45376 -0.85595,0.4912 -1.07887,0.0528 -1.2627,-0.10333 -1.28574,-1.09191 -0.0102,-0.43724 0.0194,-0.8513 0.0657,-0.92012 0.0463,-0.0688 -0.066,-0.84759 -0.24964,-1.7306 -0.469699,-2.25849 -0.618729,-3.57582 -0.723679,-6.39703 -0.0786,-2.1118 -0.3902,-4.91816 -0.70779,-6.37396 -0.0663,-0.30389 -0.0108,-0.53417 0.20673,-0.85715 0.34854,-0.5176 0.37356,-0.77462 0.096,-0.98605 -0.13608,-0.10365 -0.17585,-0.2978 -0.12265,-0.59869 0.11935,-0.67506 -0.16308,-0.53262 -0.33692,0.16992 -0.0837,0.33837 -0.25479,0.95239 -0.38015,1.3645 -0.16766,0.55118 -0.21834,1.19325 -0.19166,2.42846 0.0199,0.92354 -0.0162,1.67917 -0.0803,1.67917 -0.28234,0 -0.67725,-0.29809 -0.88618,-0.66891 -0.18149,-0.32213 -0.20822,-0.62434 -0.13425,-1.51799 0.0508,-0.6137 0.0274,-1.52379 -0.052,-2.02243 -0.10257,-0.64412 -0.0981,-1.16499 0.0156,-1.79893 0.14161,-0.78987 0.133,-0.9104 -0.075,-1.04998 -0.21792,-0.14626 -0.21416,-0.21298 0.052,-0.92095 0.1578,-0.4198 0.38517,-1.20039 0.50528,-1.73465 0.12011,-0.53426 0.44398,-1.36637 0.71973,-1.84912 0.45253,-0.79228 0.61671,-0.94676 1.68619,-1.5866 0.65167,-0.38987 1.24617,-0.70885 1.32111,-0.70885 0.21884,0 0.15839,-0.45698 -0.15785,-1.19325 -0.38814,-0.90372 -0.40012,-1.95261 -0.0275,-2.41179 0.15408,-0.18989 0.57286,-0.45713 0.93062,-0.59387 0.56682,-0.21664 0.72517,-0.22808 1.23117,-0.0889 0.69548,0.19124 0.90509,0.56058 1.05512,1.85912 0.0809,0.70021 0.0556,0.93753 -0.12711,1.19349 -0.51969,0.72796 -0.20664,1.18631 1.28106,1.87565 1.37909,0.63901 1.95679,1.44694 2.38015,3.32869 0.12588,0.55953 0.322,1.22132 0.43581,1.47064 0.11381,0.24932 0.23127,0.62816 0.26103,0.84187 0.0298,0.2137 0.14836,0.76739 0.26357,1.23042 0.64388,2.58778 0.77091,5.19097 0.27875,5.71243 -0.22316,0.23643 -0.11434,0.63394 0.17353,0.63394 0.10541,0 0.40025,-0.16803 0.65519,-0.37339 0.55475,-0.44686 1.4067,-0.79227 1.95415,-0.79227 0.52077,0 0.66932,-0.24114 0.31013,-0.50346 -0.36792,-0.26871 -0.64019,-0.75435 -0.47535,-0.84786 0.0747,-0.0424 0.0741,-0.28667 -0.002,-0.59583 -0.2029,-0.82882 0.33796,-1.43936 1.525551,-1.7221 0.625449,-0.14891 0.745109,-0.1439 0.99475,0.0417 0.43058,0.32001 0.742109,0.96571 0.742109,1.53811 0,0.28385 0.0756,0.53684 0.169,0.56541 0.129161,0.0395 0.125121,0.14893 -0.0171,0.46411 -0.10237,0.22682 -0.23172,0.4124 -0.28746,0.4124 -0.0557,0 -0.17829,0.15499 -0.27233,0.34444 -0.186,0.37466 -0.177079,0.38625 0.59037,0.76741 0.47087,0.23385 0.64984,0.61362 0.818841,1.73754 0.0696,0.46303 0.148369,0.92929 0.175,1.03614 0.0266,0.10686 0.0966,0.42742 0.155509,0.71235 0.0589,0.28495 0.19611,0.8055 0.30489,1.15679 0.10879,0.3513 0.19779,0.83034 0.19779,1.06454 0,0.43131 -0.43517,1.33974 -0.760509,1.58756 -0.253501,0.19309 0.0325,1.40132 0.44547,1.88197 0.34671,0.40354 0.33088,0.56333 -0.14083,1.42102 -0.204971,0.37271 -0.25498,0.64164 -0.18937,1.01824 0.0543,0.31161 0.0264,0.58125 -0.0715,0.68942 -0.123159,0.1362 -0.0912,0.28563 0.13693,0.64051 0.440461,0.68519 0.39293,0.93798 -0.19542,1.03929 -0.5993,0.10319 -1.2004,-0.0186 -1.2004,-0.24311 0,-0.0908 -0.20239,-0.22079 -0.449759,-0.28895 -0.410491,-0.11309 -0.46423,-0.19133 -0.61542,-0.89588 -0.133521,-0.62225 -0.128681,-0.85319 0.025,-1.19076 0.25829,-0.56739 0.31413,-1.92847 0.0877,-2.13644 -0.14114,-0.12959 -0.1765,-0.0597 -0.17693,0.34962 -2.91e-4,0.28138 -0.0932,1.03541 -0.20639,1.67563 -0.13191,0.74585 -0.15706,1.20881 -0.07,1.28869 0.20061,0.18413 0.15685,0.74884 -0.0803,1.03663 -0.11395,0.13828 -0.20719,0.46613 -0.20719,0.72855 0,0.43076 -0.0428,0.48498 -0.44098,0.55806 -0.67546,0.124 -0.79694,0.10205 -1.01474,-0.18334 z m -8.4223,-5.78468 c 0,-0.16538 0.13393,-0.7225 0.2976,-1.23805 0.73423,-2.31264 0.70874,-2.06502 0.31949,-3.10373 -0.19416,-0.51813 -0.41251,-1.19955 -0.48522,-1.51425 -0.24018,-1.03964 -0.29921,-0.892 -0.54186,1.35526 -0.17515,1.62222 -0.19787,3.26615 -0.0617,4.46215 0.0824,0.72317 0.11411,0.78811 0.28223,0.57707 0.10419,-0.13077 0.18943,-0.37307 0.18943,-0.53845 z"
       id="path7140"
       inkscape:connector-curvature="0" />
    <g
       transform="matrix(0.04960937,0,0,0.04960937,33.023229,113.44284)"
       id="g4401">
      <g
         id="g4369">
        <g
           id="g4367">
          <path
             inkscape:connector-curvature="0"
             d="M 810.9,473.5 772.2,319.6 c 0,0 -2.4,-12.4 -14.2,-19.4 -11.8,-7 -130.9,-77.9 -130.9,-77.9 -5.1,-3.1 -10.6,-4.8 -16.2,-5.5 -1.1,-0.2 -2.3,-0.4 -3.5,-0.4 h -18.3 c 0.1,-0.3 0.3,-0.6 0.6,-0.9 14.6,-16.8 23.5,-38.8 23.5,-62.8 0,-32.4 -16.1,-60.9 -40.7,-78.3 -1.8,-1.3 -3,-4 -2.7,-6.2 0.2,-1.8 0.3,-3.7 0.3,-5.6 0,-29 -23.5,-52.6 -52.6,-52.6 -29,0 -52.6,23.5 -52.6,52.6 0,1.9 0.1,3.7 0.3,5.6 0.2,2.2 -0.9,4.9 -2.7,6.2 -24.6,17.3 -40.7,45.9 -40.7,78.3 0,24 8.9,46 23.5,62.8 0.3,0.3 0.4,0.6 0.6,0.9 h -25.3 c -3.1,0 -5.9,0.9 -8.3,2.3 -2.7,0.9 -5.2,2.1 -7.7,3.6 l -5.5,3.3 -85.6,50.9 c 0,0 -35.4,20.7 -42.7,25.4 -8.4,5.4 -10.6,14.9 -10.6,14.9 l -31.4,124.9 c -20.2,9.2 -29.5,24.5 -29.5,24.5 -11.6,18 -11.4,39.5 -11.4,39.5 v 460.4 c 0,0 0.6,18.3 20.1,18.3 19.5,0 21,-16.8 21,-16.8 0,0 0.3,-450.6 0.8,-456.1 0,-0.2 0,-0.3 0,-0.5 5.4,6.4 12.8,11.2 21.5,13.4 3.4,0.9 6.9,1.3 10.3,1.3 18.2,0 34.6,-11.9 40,-29.9 1.6,4.4 2.7,11.6 4.7,22.5 3,16.2 39.4,21.7 38.5,-6.9 -0.9,-28.6 -11.1,-40.3 -24,-57.5 -1.7,-2.2 -3.8,-4.3 -6.3,-6.2 -0.2,-0.1 -0.3,-0.3 -0.4,-0.4 l 20.4,-81 1.3,-5.3 2.8,-1.6 49.8,-29.7 L 376.8,401 360,504 320.3,747.7 c 0,9.3 7.5,16.8 16.8,16.8 h 53.2 6.9 v 183.7 c 0,6.5 1.6,12.5 4.2,18 6.8,14.1 21,23.9 37.7,23.9 18.9,0 34.8,-12.6 40,-29.9 1.2,-3.8 2,-7.8 2,-12.1 V 764.4 h 68.2 v 183.7 c 0,0.5 0.1,0.9 0.1,1.4 0.6,22.5 19,40.5 41.6,40.5 14.1,0 26.6,-7 34.2,-17.7 4.9,-6.8 7.8,-15.2 7.8,-24.2 V 764.4 h 10.5 50 c 9.3,0 16.8,-7.5 16.8,-16.8 L 685.9,602 640,327.5 l 56.1,33.4 33.5,133 c 2.9,11.6 10.5,20.8 20.2,26.3 6.2,3.5 13.2,5.4 20.5,5.4 3.4,0 6.8,-0.4 10.3,-1.3 22.4,-5.5 36,-28.3 30.3,-50.8 z"
             id="path4365" />
        </g>
      </g>
      <g
         id="g4371" />
      <g
         id="g4373" />
      <g
         id="g4375" />
      <g
         id="g4377" />
      <g
         id="g4379" />
      <g
         id="g4381" />
      <g
         id="g4383" />
      <g
         id="g4385" />
      <g
         id="g4387" />
      <g
         id="g4389" />
      <g
         id="g4391" />
      <g
         id="g4393" />
      <g
         id="g4395" />
      <g
         id="g4397" />
      <g
         id="g4399" />
    </g>
  </g>
</svg>
